<?xml version="1.0" standalone="no"?>
<!DOCTYPE svg PUBLIC "-//W3C//DTD SVG 20010904//EN"
 "http://www.w3.org/TR/2001/REC-SVG-20010904/DTD/svg10.dtd">
<svg version="1.0" xmlns="http://www.w3.org/2000/svg"
 width="2048.000000pt" height="990.000000pt" viewBox="0 0 2048.000000 990.000000"
 preserveAspectRatio="xMidYMid meet">

<g transform="translate(0.000000,990.000000) scale(0.100000,-0.100000)"
fill="#000000" stroke="none">
<path d="M4188 9335 c-106 -18 -220 -57 -333 -116 -146 -75 -210 -122 -341
-253 -175 -174 -211 -234 -374 -621 -132 -315 -134 -321 -135 -395 0 -98 15
-124 152 -272 259 -280 616 -584 919 -783 234 -155 341 -206 937 -455 l367
-154 57 -77 c97 -132 433 -675 433 -701 0 -3 -55 -45 -122 -92 -521 -363 -865
-757 -956 -1095 -24 -89 -26 -112 -26 -306 0 -221 5 -267 55 -520 122 -604
439 -1341 787 -1825 233 -325 482 -560 718 -678 171 -85 295 -116 464 -116
160 0 248 20 373 87 441 235 610 739 441 1319 -19 67 -82 251 -140 410 -146
404 -214 673 -214 843 l0 48 78 -74 c526 -504 1254 -886 2296 -1208 750 -232
1378 -340 2081 -357 1023 -26 1975 230 2707 727 48 32 91 59 95 59 5 0 51 -75
103 -166 503 -878 1052 -1477 1565 -1707 157 -70 368 -146 515 -184 171 -46
365 -57 483 -28 187 45 290 154 391 407 90 230 131 407 142 622 21 396 -131
841 -399 1162 -51 62 -79 83 -206 160 -226 136 -373 238 -417 291 -63 75 -107
144 -98 152 5 4 68 31 139 61 179 73 317 143 352 179 79 79 97 216 40 313 -30
52 -164 161 -597 487 -135 101 -279 210 -320 241 -382 288 -1398 999 -1800
1257 -1034 666 -1735 1051 -2405 1321 -1058 426 -1901 647 -2775 728 -231 22
-736 25 -925 6 -494 -49 -861 -144 -1214 -313 -79 -38 -147 -69 -151 -69 -3 0
-31 30 -60 68 -307 383 -720 768 -1124 1046 -325 224 -746 447 -993 526 -183
59 -387 75 -565 45z m367 -530 c75 -20 270 -107 435 -193 561 -295 1109 -756
1508 -1269 l103 -132 3 -273 c3 -279 13 -390 56 -613 82 -427 228 -811 444
-1169 l65 -108 -64 -108 c-78 -132 -110 -194 -168 -331 -149 -348 -209 -621
-211 -949 -1 -332 47 -581 187 -980 30 -85 83 -234 117 -330 95 -269 112 -344
114 -485 1 -142 -18 -218 -79 -310 -134 -201 -369 -208 -625 -19 -333 244
-703 832 -945 1499 -137 377 -225 808 -212 1035 6 118 29 180 106 297 168 255
480 519 960 815 73 45 116 102 131 174 22 103 7 139 -227 542 -279 483 -506
787 -638 855 -17 8 -210 90 -430 182 -595 248 -715 311 -990 516 -192 143
-497 411 -595 522 l-30 35 90 217 c97 233 114 262 218 369 192 198 439 274
677 211z m4131 -1675 c185 -243 289 -389 288 -403 0 -23 -375 -927 -384 -927
-9 0 -133 181 -189 274 -122 206 -247 530 -304 786 -47 211 -93 609 -71 611 5
0 72 8 149 18 77 11 158 19 181 20 l41 1 289 -380z m629 360 c206 -23 379 -50
585 -90 210 -40 500 -110 500 -120 0 -20 -41 -101 -52 -105 -13 -4 -872 -115
-919 -118 -24 -2 -46 23 -191 213 -90 118 -167 221 -172 228 -10 17 45 16 249
-8z m-1811 -192 c3 -18 8 -67 11 -108 36 -430 186 -931 391 -1302 283 -511
675 -906 1227 -1237 130 -78 428 -220 627 -299 1254 -498 2680 -675 4150 -517
677 73 1295 199 1881 382 l146 46 216 -162 c119 -89 218 -165 222 -170 6 -10
-82 -44 -390 -147 -804 -271 -1635 -441 -2495 -511 -169 -14 -324 -18 -730
-17 -454 0 -542 3 -745 23 -745 72 -1334 193 -1990 408 -922 303 -1585 688
-2059 1197 -421 450 -682 958 -789 1536 -41 216 -50 313 -51 522 -1 163 2 200
14 212 29 28 320 173 352 175 4 1 9 -14 12 -31z m3889 -327 c173 -63 412 -158
597 -238 97 -42 462 -212 468 -217 2 -3 -67 -173 -74 -184 -3 -4 -910 -122
-941 -122 -17 0 -84 81 -309 377 -158 207 -287 382 -287 387 0 6 14 46 32 88
l32 77 157 -54 c86 -29 233 -80 325 -114z m-677 -698 c158 -207 287 -382 287
-388 0 -14 -502 -1216 -512 -1227 -4 -5 -92 21 -196 56 -499 167 -886 358
-1192 588 -54 40 -101 76 -106 79 -8 6 455 1125 473 1143 9 9 845 122 922 125
l37 1 287 -377z m2322 -74 c488 -281 1192 -724 1175 -739 -8 -8 -763 -104
-767 -98 -126 161 -576 759 -576 765 0 11 52 133 57 133 2 0 52 -28 111 -61z
m-293 -779 c153 -201 279 -372 281 -380 2 -8 -66 -177 -149 -375 l-152 -360
-125 3 c-326 7 -687 40 -1022 92 -204 32 -546 98 -564 108 -8 5 65 190 227
577 131 314 242 577 247 585 12 21 951 143 968 126 7 -6 137 -175 289 -376z
m2407 -590 c136 -96 248 -177 248 -180 0 -7 -209 -62 -415 -109 -324 -75 -728
-142 -1120 -186 -159 -18 -556 -47 -563 -41 -6 7 211 518 222 522 25 9 1314
172 1346 170 27 -1 89 -40 282 -176z m-7277 -584 c428 -369 901 -645 1530
-891 728 -285 1440 -465 2210 -559 461 -57 546 -61 1188 -61 328 0 597 -1 597
-2 0 -6 -298 -98 -410 -127 -224 -58 -525 -107 -775 -127 -234 -18 -695 -13
-921 10 -733 76 -1368 233 -2124 524 -572 220 -974 442 -1315 726 -166 138
-495 483 -495 519 0 12 49 126 109 254 l40 87 118 -121 c65 -66 177 -170 248
-232z m8214 -1013 c23 -51 121 -193 187 -273 78 -95 187 -179 426 -330 226
-142 208 -127 273 -226 152 -230 213 -448 202 -723 -5 -130 -9 -159 -40 -261
-20 -63 -49 -149 -64 -190 l-29 -75 -44 -3 c-139 -10 -598 153 -790 281 -159
106 -293 226 -449 401 -196 220 -323 390 -513 686 -117 183 -258 422 -258 439
0 6 8 11 18 11 62 0 863 216 997 269 65 26 70 26 84 -6z"/>
<path d="M4394 8645 c-51 -30 -78 -82 -77 -148 3 -191 282 -216 324 -29 32
142 -122 252 -247 177z"/>
</g>
</svg>
